<mxfile host="app.diagrams.net" modified="2021-06-22T03:59:32.556Z" agent="5.0 (Windows NT 10.0; Win64; x64) AppleWebKit/537.36 (KHTML, like Gecko) Chrome/91.0.4472.106 Safari/537.36" etag="o9Qo7F-0XspdEg3PIUJ1" version="14.8.0" type="github">
  <diagram id="_AhJAxcmB3iRhriajbkX" name="Page-1">
    <mxGraphModel dx="1422" dy="762" grid="1" gridSize="10" guides="1" tooltips="1" connect="1" arrows="1" fold="1" page="1" pageScale="1" pageWidth="827" pageHeight="1169" math="0" shadow="0">
      <root>
        <mxCell id="0" />
        <mxCell id="1" parent="0" />
        <mxCell id="jBHGeVDAcOR8FORxLnqv-26" value="Service Layer&lt;br&gt;&lt;br&gt;&lt;div style=&quot;text-align: left&quot;&gt;&lt;b&gt;+PeopleService&lt;/b&gt;&lt;/div&gt;&lt;div style=&quot;text-align: left&quot;&gt;&lt;b&gt;+DeveloperService&lt;/b&gt;&lt;br&gt;&lt;/div&gt;" style="rounded=1;whiteSpace=wrap;html=1;labelBackgroundColor=none;align=center;verticalAlign=top;" parent="1" vertex="1">
          <mxGeometry x="110" y="180" width="120" height="80" as="geometry" />
        </mxCell>
        <mxCell id="jBHGeVDAcOR8FORxLnqv-28" value="" style="endArrow=none;html=1;" parent="1" edge="1">
          <mxGeometry width="50" height="50" relative="1" as="geometry">
            <mxPoint x="111" y="204" as="sourcePoint" />
            <mxPoint x="230" y="204" as="targetPoint" />
          </mxGeometry>
        </mxCell>
        <mxCell id="jBHGeVDAcOR8FORxLnqv-29" value="Controllers&lt;br&gt;&lt;br&gt;&lt;div style=&quot;text-align: left&quot;&gt;&lt;b&gt;+PeopleController&lt;/b&gt;&lt;/div&gt;&lt;div style=&quot;text-align: left&quot;&gt;&lt;b&gt;+DeveloperController&lt;/b&gt;&lt;br&gt;&lt;/div&gt;" style="rounded=1;whiteSpace=wrap;html=1;labelBackgroundColor=none;align=center;verticalAlign=top;" parent="1" vertex="1">
          <mxGeometry x="450" y="140" width="130" height="80" as="geometry" />
        </mxCell>
        <mxCell id="jBHGeVDAcOR8FORxLnqv-30" value="" style="endArrow=none;html=1;" parent="1" edge="1">
          <mxGeometry width="50" height="50" relative="1" as="geometry">
            <mxPoint x="451" y="164.0000000000001" as="sourcePoint" />
            <mxPoint x="580" y="165" as="targetPoint" />
          </mxGeometry>
        </mxCell>
        <mxCell id="jBHGeVDAcOR8FORxLnqv-31" value="Data Access Layer&lt;br&gt;&lt;br&gt;&lt;div style=&quot;text-align: left&quot;&gt;&lt;b&gt;PeopleRepository&lt;/b&gt;&lt;/div&gt;&lt;div style=&quot;text-align: left&quot;&gt;&lt;b&gt;DeveloperRepository&lt;/b&gt;&lt;br&gt;&lt;/div&gt;" style="rounded=1;whiteSpace=wrap;html=1;labelBackgroundColor=none;align=center;verticalAlign=top;" parent="1" vertex="1">
          <mxGeometry x="310" y="360" width="150" height="80" as="geometry" />
        </mxCell>
        <mxCell id="jBHGeVDAcOR8FORxLnqv-32" value="" style="endArrow=none;html=1;" parent="1" edge="1">
          <mxGeometry width="50" height="50" relative="1" as="geometry">
            <mxPoint x="311" y="384.0000000000001" as="sourcePoint" />
            <mxPoint x="460" y="384" as="targetPoint" />
          </mxGeometry>
        </mxCell>
        <mxCell id="jBHGeVDAcOR8FORxLnqv-33" value="" style="edgeStyle=elbowEdgeStyle;elbow=horizontal;endArrow=classic;html=1;exitX=0.938;exitY=0.013;exitDx=0;exitDy=0;exitPerimeter=0;" parent="1" source="jBHGeVDAcOR8FORxLnqv-26" edge="1">
          <mxGeometry width="50" height="50" relative="1" as="geometry">
            <mxPoint x="230" y="180" as="sourcePoint" />
            <mxPoint x="440" y="160" as="targetPoint" />
          </mxGeometry>
        </mxCell>
        <mxCell id="jBHGeVDAcOR8FORxLnqv-34" value="" style="edgeStyle=elbowEdgeStyle;elbow=horizontal;endArrow=classic;html=1;" parent="1" edge="1">
          <mxGeometry width="50" height="50" relative="1" as="geometry">
            <mxPoint x="678" y="130" as="sourcePoint" />
            <mxPoint x="578" y="145" as="targetPoint" />
          </mxGeometry>
        </mxCell>
        <mxCell id="VNMcC1Kl5goL2773xZUz-4" value="&lt;b&gt;&lt;font style=&quot;font-size: 15px&quot;&gt;Requests&lt;/font&gt;&lt;/b&gt;" style="text;html=1;align=center;verticalAlign=middle;resizable=0;points=[];autosize=1;strokeColor=none;" vertex="1" parent="1">
          <mxGeometry x="675" y="120" width="80" height="20" as="geometry" />
        </mxCell>
        <mxCell id="VNMcC1Kl5goL2773xZUz-5" value="" style="strokeWidth=2;html=1;shape=mxgraph.flowchart.database;whiteSpace=wrap;labelBackgroundColor=none;align=center;verticalAlign=top;" vertex="1" parent="1">
          <mxGeometry x="394" y="520" width="60" height="60" as="geometry" />
        </mxCell>
        <mxCell id="VNMcC1Kl5goL2773xZUz-6" value="&lt;b&gt;&lt;font style=&quot;font-size: 20px&quot;&gt;SQL&lt;/font&gt;&lt;/b&gt;" style="strokeWidth=2;html=1;shape=mxgraph.flowchart.database;whiteSpace=wrap;labelBackgroundColor=none;align=center;verticalAlign=top;fillColor=#0050ef;strokeColor=#001DBC;fontColor=#ffffff;gradientColor=#ffffff;gradientDirection=north;" vertex="1" parent="1">
          <mxGeometry x="374" y="535" width="60" height="60" as="geometry" />
        </mxCell>
        <mxCell id="VNMcC1Kl5goL2773xZUz-7" value="" style="shape=flexArrow;endArrow=classic;html=1;fillColor=#33001A;" edge="1" parent="1">
          <mxGeometry width="50" height="50" relative="1" as="geometry">
            <mxPoint x="413" y="510" as="sourcePoint" />
            <mxPoint x="413" y="450" as="targetPoint" />
          </mxGeometry>
        </mxCell>
        <mxCell id="VNMcC1Kl5goL2773xZUz-8" value="" style="edgeStyle=elbowEdgeStyle;elbow=vertical;endArrow=classic;html=1;fillColor=#33001A;exitX=0.5;exitY=0;exitDx=0;exitDy=0;" edge="1" parent="1" source="jBHGeVDAcOR8FORxLnqv-31">
          <mxGeometry width="50" height="50" relative="1" as="geometry">
            <mxPoint x="384" y="310" as="sourcePoint" />
            <mxPoint x="180" y="270" as="targetPoint" />
            <Array as="points">
              <mxPoint x="160" y="300" />
              <mxPoint x="180" y="280" />
              <mxPoint x="280" y="270" />
              <mxPoint x="370" y="310" />
              <mxPoint x="350" y="260" />
              <mxPoint x="350" y="300" />
              <mxPoint x="330" y="220" />
            </Array>
          </mxGeometry>
        </mxCell>
      </root>
    </mxGraphModel>
  </diagram>
</mxfile>
